<svg width="1440" height="1024" viewBox="0 0 1440 1024" fill="none" xmlns="http://www.w3.org/2000/svg">
<rect width="1440" height="1024" fill="#1E1E1E"/>
<g clip-path="url(#clip0_0_1)">
<rect width="1440" height="1024" fill="white"/>
<rect x="-0.314585" y="945.949" width="100" height="100" transform="rotate(45 -0.314585 945.949)" fill="#52311E"/>
<rect width="100" height="100" transform="matrix(-0.707107 -0.707107 -0.707107 0.707107 141.107 945.949)" fill="#C59562"/>
<rect width="100" height="100" transform="matrix(-0.707107 -0.707107 -0.707107 0.707107 70.3961 875.239)" fill="#52311E"/>
<rect x="-0.314585" y="663.107" width="100" height="100" transform="rotate(45 -0.314585 663.107)" fill="#52311E"/>
<rect x="70.3961" y="733.817" width="100" height="100" transform="rotate(45 70.3961 733.817)" fill="#C59562"/>
<rect x="141.107" y="804.528" width="100" height="100" transform="rotate(45 141.107 804.528)" fill="#52311E"/>
<rect width="100" height="100" transform="matrix(-0.707107 -0.707107 -0.707107 0.707107 282.528 804.528)" fill="#C59562"/>
<rect width="100" height="100" transform="matrix(-0.707107 -0.707107 -0.707107 0.707107 211.817 733.817)" fill="#52311E"/>
<rect width="100" height="100" transform="matrix(-0.707107 -0.707107 -0.707107 0.707107 141.107 663.107)" fill="#C59562"/>
<rect width="100" height="100" transform="matrix(-0.707107 -0.707107 -0.707107 0.707107 70.3961 592.396)" fill="#52311E"/>
<rect x="70.3961" y="450.975" width="100" height="100" transform="rotate(45 70.3961 450.975)" fill="#C59562"/>
<rect x="141.107" y="521.685" width="100" height="100" transform="rotate(45 141.107 521.685)" fill="#52311E"/>
<rect x="211.817" y="592.396" width="100" height="100" transform="rotate(45 211.817 592.396)" fill="#C59562"/>
<rect x="282.528" y="663.107" width="100" height="100" transform="rotate(45 282.528 663.107)" fill="#52311E"/>
<rect x="-0.314585" y="380.264" width="100" height="100" transform="rotate(45 -0.314585 380.264)" fill="#52311E"/>
<rect width="100" height="100" transform="matrix(-0.707107 -0.707107 -0.707107 0.707107 423.949 663.107)" fill="#C59562"/>
<rect width="100" height="100" transform="matrix(-0.707107 -0.707107 -0.707107 0.707107 353.239 592.396)" fill="#52311E"/>
<rect width="100" height="100" transform="matrix(-0.707107 -0.707107 -0.707107 0.707107 141.107 380.264)" fill="#C59562"/>
<rect width="100" height="100" transform="matrix(-0.707107 -0.707107 -0.707107 0.707107 70.3961 309.553)" fill="#52311E"/>
<rect width="100" height="100" transform="matrix(-0.707107 -0.707107 -0.707107 0.707107 282.528 521.685)" fill="#C59562"/>
<rect width="100" height="100" transform="matrix(-0.707107 -0.707107 -0.707107 0.707107 211.817 450.975)" fill="#52311E"/>
<rect x="-0.314585" y="97.4214" width="100" height="100" transform="rotate(45 -0.314585 97.4214)" fill="#52311E"/>
<rect x="211.817" y="309.553" width="100" height="100" transform="rotate(45 211.817 309.553)" fill="#C59562"/>
<rect x="282.528" y="380.264" width="100" height="100" transform="rotate(45 282.528 380.264)" fill="#52311E"/>
<rect x="353.239" y="450.975" width="100" height="100" transform="rotate(45 353.239 450.975)" fill="#C59562"/>
<rect x="423.949" y="521.685" width="100" height="100" transform="rotate(45 423.949 521.685)" fill="#52311E"/>
<rect x="70.3961" y="168.132" width="100" height="100" transform="rotate(45 70.3961 168.132)" fill="#C59562"/>
<rect x="141.107" y="238.843" width="100" height="100" transform="rotate(45 141.107 238.843)" fill="#52311E"/>
<rect width="100" height="100" transform="matrix(-0.707107 -0.707107 -0.707107 0.707107 565.371 521.685)" fill="#C59562"/>
<rect width="100" height="100" transform="matrix(-0.707107 -0.707107 -0.707107 0.707107 494.66 450.975)" fill="#52311E"/>
<rect width="100" height="100" transform="matrix(-0.707107 -0.707107 -0.707107 0.707107 282.528 238.843)" fill="#C59562"/>
<rect width="100" height="100" transform="matrix(-0.707107 -0.707107 -0.707107 0.707107 211.817 168.132)" fill="#52311E"/>
<rect width="100" height="100" transform="matrix(-0.707107 -0.707107 -0.707107 0.707107 141.107 97.4214)" fill="#C59562"/>
<rect width="100" height="100" transform="matrix(-0.707107 -0.707107 -0.707107 0.707107 70.3961 26.7107)" fill="#52311E"/>
<rect width="100" height="100" transform="matrix(-0.707107 -0.707107 -0.707107 0.707107 423.949 380.264)" fill="#C59562"/>
<rect width="100" height="100" transform="matrix(-0.707107 -0.707107 -0.707107 0.707107 353.239 309.553)" fill="#52311E"/>
<rect x="1368.97" y="1016.66" width="100" height="100" transform="rotate(-45 1368.97 1016.66)" fill="#C59562"/>
<rect x="1439.69" y="945.949" width="100" height="100" transform="rotate(-45 1439.69 945.949)" fill="#52311E"/>
<rect width="100" height="100" transform="matrix(-0.707107 0.707107 0.707107 0.707107 1510.4 733.817)" fill="#52311E"/>
<rect width="100" height="100" transform="matrix(-0.707107 0.707107 0.707107 0.707107 1439.69 804.528)" fill="#C59562"/>
<rect width="100" height="100" transform="matrix(-0.707107 0.707107 0.707107 0.707107 1368.97 875.239)" fill="#52311E"/>
<rect x="1227.55" y="875.239" width="100" height="100" transform="rotate(-45 1227.55 875.239)" fill="#C59562"/>
<rect x="1298.26" y="804.528" width="100" height="100" transform="rotate(-45 1298.26 804.528)" fill="#52311E"/>
<rect x="1368.97" y="733.817" width="100" height="100" transform="rotate(-45 1368.97 733.817)" fill="#C59562"/>
<rect x="1439.69" y="663.107" width="100" height="100" transform="rotate(-45 1439.69 663.107)" fill="#52311E"/>
<rect width="100" height="100" transform="matrix(-0.707107 0.707107 0.707107 0.707107 1439.69 521.685)" fill="#C59562"/>
<rect width="100" height="100" transform="matrix(-0.707107 0.707107 0.707107 0.707107 1368.97 592.396)" fill="#52311E"/>
<rect width="100" height="100" transform="matrix(-0.707107 0.707107 0.707107 0.707107 1298.26 663.107)" fill="#C59562"/>
<rect width="100" height="100" transform="matrix(-0.707107 0.707107 0.707107 0.707107 1227.55 733.817)" fill="#52311E"/>
<rect width="100" height="100" transform="matrix(-0.707107 0.707107 0.707107 0.707107 1510.4 450.975)" fill="#52311E"/>
<rect x="1086.13" y="733.817" width="100" height="100" transform="rotate(-45 1086.13 733.817)" fill="#C59562"/>
<rect x="1156.84" y="663.107" width="100" height="100" transform="rotate(-45 1156.84 663.107)" fill="#52311E"/>
<rect x="1368.97" y="450.975" width="100" height="100" transform="rotate(-45 1368.97 450.975)" fill="#C59562"/>
<rect x="1439.69" y="380.264" width="100" height="100" transform="rotate(-45 1439.69 380.264)" fill="#52311E"/>
<rect x="1227.55" y="592.396" width="100" height="100" transform="rotate(-45 1227.55 592.396)" fill="#C59562"/>
<rect x="1298.26" y="521.685" width="100" height="100" transform="rotate(-45 1298.26 521.685)" fill="#52311E"/>
<rect width="100" height="100" transform="matrix(-0.707107 0.707107 0.707107 0.707107 1510.4 168.132)" fill="#52311E"/>
<rect width="100" height="100" transform="matrix(-0.707107 0.707107 0.707107 0.707107 1298.26 380.264)" fill="#C59562"/>
<rect width="100" height="100" transform="matrix(-0.707107 0.707107 0.707107 0.707107 1227.55 450.975)" fill="#52311E"/>
<rect width="100" height="100" transform="matrix(-0.707107 0.707107 0.707107 0.707107 1156.84 521.685)" fill="#C59562"/>
<rect width="100" height="100" transform="matrix(-0.707107 0.707107 0.707107 0.707107 1086.13 592.396)" fill="#52311E"/>
<rect width="100" height="100" transform="matrix(-0.707107 0.707107 0.707107 0.707107 1439.69 238.843)" fill="#C59562"/>
<rect width="100" height="100" transform="matrix(-0.707107 0.707107 0.707107 0.707107 1368.97 309.553)" fill="#52311E"/>
<rect x="944.711" y="592.396" width="100" height="100" transform="rotate(-45 944.711 592.396)" fill="#C59562"/>
<rect x="1015.42" y="521.685" width="100" height="100" transform="rotate(-45 1015.42 521.685)" fill="#52311E"/>
<rect x="1227.55" y="309.553" width="100" height="100" transform="rotate(-45 1227.55 309.553)" fill="#C59562"/>
<rect x="1298.26" y="238.843" width="100" height="100" transform="rotate(-45 1298.26 238.843)" fill="#52311E"/>
<rect x="1368.97" y="168.132" width="100" height="100" transform="rotate(-45 1368.97 168.132)" fill="#C59562"/>
<rect x="1439.69" y="97.4214" width="100" height="100" transform="rotate(-45 1439.69 97.4214)" fill="#52311E"/>
<rect x="1086.13" y="450.975" width="100" height="100" transform="rotate(-45 1086.13 450.975)" fill="#C59562"/>
<rect x="1156.84" y="380.264" width="100" height="100" transform="rotate(-45 1156.84 380.264)" fill="#52311E"/>
<rect width="100" height="100" transform="matrix(-0.707107 0.707107 0.707107 0.707107 1439.69 -44)" fill="#C59562"/>
<rect width="100" height="100" transform="matrix(-0.707107 0.707107 0.707107 0.707107 1368.97 26.7107)" fill="#52311E"/>
<rect width="100" height="100" transform="matrix(-0.707107 0.707107 0.707107 0.707107 1156.84 238.843)" fill="#C59562"/>
<rect width="100" height="100" transform="matrix(-0.707107 0.707107 0.707107 0.707107 1086.13 309.553)" fill="#52311E"/>
<rect width="100" height="100" transform="matrix(-0.707107 0.707107 0.707107 0.707107 1015.42 380.264)" fill="#C59562"/>
<rect width="100" height="100" transform="matrix(-0.707107 0.707107 0.707107 0.707107 944.711 450.975)" fill="#52311E"/>
<rect width="100" height="100" transform="matrix(-0.707107 0.707107 0.707107 0.707107 1298.26 97.4214)" fill="#C59562"/>
<rect width="100" height="100" transform="matrix(-0.707107 0.707107 0.707107 0.707107 1227.55 168.132)" fill="#52311E"/>
</g>
<defs>
<clipPath id="clip0_0_1">
<rect width="1440" height="1024" fill="white"/>
</clipPath>
</defs>
</svg>
